<mxfile host="app.diagrams.net" agent="Mozilla/5.0 (Windows NT 10.0; Win64; x64) AppleWebKit/537.36 (KHTML, like Gecko) Chrome/131.0.0.0 Safari/537.36" version="24.9.1">
  <diagram id="HMwq9Bw2_zFM2JP5iVwU" name="Trang-1">
    <mxGraphModel dx="1050" dy="522" grid="1" gridSize="10" guides="1" tooltips="1" connect="1" arrows="1" fold="1" page="1" pageScale="1" pageWidth="827" pageHeight="1169" math="0" shadow="0">
      <root>
        <mxCell id="0" />
        <mxCell id="1" parent="0" />
        <mxCell id="W4-QBJLo2RuPdgGEWoz_-3" style="edgeStyle=orthogonalEdgeStyle;rounded=0;orthogonalLoop=1;jettySize=auto;html=1;" edge="1" parent="1" source="W4-QBJLo2RuPdgGEWoz_-1" target="W4-QBJLo2RuPdgGEWoz_-2">
          <mxGeometry relative="1" as="geometry" />
        </mxCell>
        <mxCell id="W4-QBJLo2RuPdgGEWoz_-1" value="Quản lý" style="shape=umlActor;verticalLabelPosition=bottom;verticalAlign=top;html=1;outlineConnect=0;" vertex="1" parent="1">
          <mxGeometry x="70" y="230" width="30" height="60" as="geometry" />
        </mxCell>
        <mxCell id="W4-QBJLo2RuPdgGEWoz_-2" value="Quản lý phòng ban" style="ellipse;whiteSpace=wrap;html=1;" vertex="1" parent="1">
          <mxGeometry x="170" y="225" width="140" height="70" as="geometry" />
        </mxCell>
        <mxCell id="W4-QBJLo2RuPdgGEWoz_-8" value="Extend" style="html=1;verticalAlign=bottom;endArrow=open;dashed=1;endSize=8;curved=0;rounded=0;" edge="1" parent="1" source="W4-QBJLo2RuPdgGEWoz_-4" target="W4-QBJLo2RuPdgGEWoz_-2">
          <mxGeometry relative="1" as="geometry">
            <mxPoint x="450" y="290" as="sourcePoint" />
            <mxPoint x="370" y="290" as="targetPoint" />
          </mxGeometry>
        </mxCell>
        <mxCell id="W4-QBJLo2RuPdgGEWoz_-10" value="Extend" style="html=1;verticalAlign=bottom;endArrow=open;dashed=1;endSize=8;curved=0;rounded=0;" edge="1" parent="1" source="W4-QBJLo2RuPdgGEWoz_-5" target="W4-QBJLo2RuPdgGEWoz_-2">
          <mxGeometry relative="1" as="geometry">
            <mxPoint x="434" y="166" as="sourcePoint" />
            <mxPoint x="296" y="244" as="targetPoint" />
          </mxGeometry>
        </mxCell>
        <mxCell id="W4-QBJLo2RuPdgGEWoz_-11" value="Extend" style="html=1;verticalAlign=bottom;endArrow=open;dashed=1;endSize=8;curved=0;rounded=0;" edge="1" parent="1" source="W4-QBJLo2RuPdgGEWoz_-6" target="W4-QBJLo2RuPdgGEWoz_-2">
          <mxGeometry relative="1" as="geometry">
            <mxPoint x="410" y="270" as="sourcePoint" />
            <mxPoint x="320" y="270" as="targetPoint" />
          </mxGeometry>
        </mxCell>
        <mxCell id="W4-QBJLo2RuPdgGEWoz_-4" value="Sửa phòng ban" style="ellipse;whiteSpace=wrap;html=1;" vertex="1" parent="1">
          <mxGeometry x="400" y="140" width="140" height="70" as="geometry" />
        </mxCell>
        <mxCell id="W4-QBJLo2RuPdgGEWoz_-5" value="Xóa phòng ban" style="ellipse;whiteSpace=wrap;html=1;" vertex="1" parent="1">
          <mxGeometry x="400" y="220" width="140" height="70" as="geometry" />
        </mxCell>
        <mxCell id="W4-QBJLo2RuPdgGEWoz_-6" value="Thêm phòng ban" style="ellipse;whiteSpace=wrap;html=1;" vertex="1" parent="1">
          <mxGeometry x="400" y="310" width="140" height="70" as="geometry" />
        </mxCell>
      </root>
    </mxGraphModel>
  </diagram>
</mxfile>
